{
 "cells": [
  {
   "cell_type": "markdown",
   "id": "b1ee691d",
   "metadata": {},
   "source": [
    "# FINAL PROJECT: CV-BASED TENNIS COACHING\n",
    "## Prepared for: Exam of *AI Lab: Computer Vision and NLP* by Professor Pannone\n",
    "### Prepared by: Federica Bruni (1933963) , Maria Emilia Russo (1966203)"
   ]
  },
  {
   "cell_type": "markdown",
   "id": "d087d3c1",
   "metadata": {},
   "source": [
    "### short project overview\n",
    "This notebook is the code of the project 'CV-BASED TENNIS COACHING' which aims at analysing videos from a tennis game and being able to:\n",
    "- predict the next stroke\n",
    "- compare two videos containing the same stroke and get a score out of 100 on how similar these strokes look."
   ]
  },
  {
   "cell_type": "markdown",
   "id": "d3790cc7",
   "metadata": {},
   "source": [
    "## step0 - imports & costants"
   ]
  },
  {
   "cell_type": "code",
   "execution_count": 460,
   "id": "c7e2dd91",
   "metadata": {},
   "outputs": [],
   "source": [
    "import pandas as pd\n",
    "import numpy as np\n",
    "import os\n",
    "import json\n",
    "import io\n",
    "import base64\n",
    "from IPython.display import HTML\n",
    "from sklearn.svm import SVC\n",
    "from sklearn.model_selection import train_test_split\n",
    "from sklearn.metrics import classification_report\n",
    "import cv2\n",
    "from sklearn import preprocessing\n",
    "from dtaidistance import dtw"
   ]
  },
  {
   "cell_type": "code",
   "execution_count": 461,
   "id": "282a1a93",
   "metadata": {},
   "outputs": [],
   "source": [
    "#this variable holds True if the needed envirorment for this project exists\n",
    "setted_up = False\n",
    "\n",
    "#this variable holds the absolute path to the notebook directory\n",
    "dir_path = '/Users/uni/opt/' #INSERT YOUR PATH HERE\n",
    "\n",
    "#this variables hold the absolute path to the train & test directories\n",
    "train_dir = ''\n",
    "test_dir = ''\n",
    "\n",
    "#since each training file corresponds to one and only one output directory we use a dictionary to keep track of\n",
    "#mapping between video name and directory number\n",
    "train_dict= {}\n",
    "train_num = 0\n"
   ]
  },
  {
   "cell_type": "markdown",
   "id": "71e76908",
   "metadata": {},
   "source": [
    "## step1 - build needed structure"
   ]
  },
  {
   "cell_type": "code",
   "execution_count": 462,
   "id": "c72f94c2",
   "metadata": {},
   "outputs": [],
   "source": [
    "def set_up():\n",
    "    '''function that constructs a system of directories to organize our data for this project.\n",
    "    \n",
    "    The idea is the following:\n",
    "    notebook-directory-path  --> train - directory of training videos \n",
    "                             --> test - directory of testing videos '''\n",
    "    \n",
    "    #sanity check to avoid building the same enirorment twice\n",
    "    global setted_up\n",
    "    \n",
    "    if setted_up == True:\n",
    "        return 'The required system of directories already exists'\n",
    "    else:\n",
    "        setted_up = True\n",
    "    \n",
    "    #if it does not exist yet: build train directory to collect training videos\n",
    "    train_directory = os.path.join(dir_path, 'train/')\n",
    "    if not os.path.exists(train_directory):\n",
    "        os.mkdir(train_directory)\n",
    "        global train_dir\n",
    "        train_dir = train_directory\n",
    "    \n",
    "    \n",
    "    #if it does not exist yet: build test directory to collect testing videos\n",
    "    test_directory = os.path.join(dir_path, 'test/')\n",
    "    if not os.path.exists(test_directory):\n",
    "        os.mkdir(test_directory)\n",
    "        global test_dir\n",
    "        test_dir = test_directory\n",
    "    \n",
    "    return 'Envirorment set-up was successfully completed'\n"
   ]
  },
  {
   "cell_type": "markdown",
   "id": "e240aa4e",
   "metadata": {},
   "source": [
    "## step2 - For each training file build file-related structure and populate with openpose"
   ]
  },
  {
   "cell_type": "code",
   "execution_count": 463,
   "id": "62e50e33",
   "metadata": {},
   "outputs": [],
   "source": [
    "def populate():\n",
    "    ''' function that firstly builds directories to hold training files openpose result and then runs openpose. \n",
    "    \n",
    "    In particular for each file:\n",
    "    notebook-directory-path  --> train - directory of training videos -> output_train_0 --> images\n",
    "                                                                                        --> json\n",
    "                                                                                        --> video (mp4)\n",
    "    NB: 3 assumptions: \n",
    "        - input video is in '.avi'\n",
    "        - filename format: stroke_name + _ + number '''\n",
    "\n",
    "    global train_dir\n",
    "    global train_dict\n",
    "    global train_num\n",
    "    \n",
    "    #this check is needed to ensure that populate has the train directory to which\n",
    "    if setted_up == False:\n",
    "        return 'The envirorment must be setted up before population'\n",
    "    \n",
    "    #list of train_videos names\n",
    "    train_videos = [file.split('.')[0] for file in os.listdir(train_dir) if file.endswith('.avi')]\n",
    "    \n",
    "    for vid in train_videos:\n",
    "        \n",
    "        #first we make sure that the ouput of this file does not exist already by verifying that the video name\n",
    "        #has not been stored as key in the train dictionary\n",
    "        if vid in train_dict.keys():\n",
    "            print('The output of ' + vid + ' already exists')\n",
    "            continue\n",
    "\n",
    "        train_dict[vid]=train_num\n",
    "        train_num += 1\n",
    "    \n",
    "        #filename with extenction\n",
    "        tot_name = vid + '.avi'\n",
    "        \n",
    "        #path to training video\n",
    "        video_path = os.path.join(train_dir,tot_name)\n",
    "        \n",
    "        #path to output of openpose\n",
    "        train_out_dir_path = os.path.join(dir_path, 'output_train'+str(train_num-1)+'/')\n",
    "        \n",
    "        #no need to check if directory already exists because we've already checked that no mapping exists\n",
    "        \n",
    "        os.mkdir(train_out_dir_path)\n",
    "            \n",
    "        #if the directory did not exist before then for sure neither its subdirectory existed\n",
    "        train_json = os.path.join(train_out_dir_path,'json/')\n",
    "        os.mkdir(train_json)\n",
    "            \n",
    "        train_images = os.path.join(train_out_dir_path,'images/')\n",
    "        os.mkdir(train_images)\n",
    "            \n",
    "        train_mp4 = os.path.join(train_out_dir_path,'video/')\n",
    "        os.mkdir(train_mp4)\n",
    "            \n",
    "        #path to save the video result\n",
    "        video_save = os.path.join(train_mp4,tot_name)\n",
    "            \n",
    "        #openpose in action\n",
    "        !cd \"opt/openpose\" && build/examples/openpose/openpose.bin --video $video_path --write_json $train_json --display 0 --write_images $train_images --write_images_format jpg --write_video $video_save\n",
    "    \n",
    "        # convert the result into MP4\n",
    "        video_mp4 = os.path.join(train_mp4,vid+'.mp4')\n",
    "        !ffmpeg -y -loglevel info -i $video_save $video_mp4\n",
    "            \n",
    "        #print confirmation\n",
    "        print('The output of '+ vid + ' has been stored')\n",
    "        \n",
    "            \n",
    "    return 'The population was successfully completed'"
   ]
  },
  {
   "cell_type": "code",
   "execution_count": 193,
   "id": "40b827d1",
   "metadata": {},
   "outputs": [
    {
     "data": {
      "text/plain": [
       "'The required system of directories already exists'"
      ]
     },
     "execution_count": 193,
     "metadata": {},
     "output_type": "execute_result"
    }
   ],
   "source": [
    "set_up()"
   ]
  },
  {
   "cell_type": "code",
   "execution_count": 194,
   "id": "df9784ba",
   "metadata": {},
   "outputs": [
    {
     "name": "stdout",
     "output_type": "stream",
     "text": [
      "The output of backhand_1 already exists\n",
      "The output of backhand_2 already exists\n",
      "Starting OpenPose demo...\n",
      "Configuring OpenPose...\n",
      "Starting thread(s)...\n",
      "---------------------------------- WARNING ----------------------------------\n",
      "We have introduced an additional boost in accuracy in the CUDA version of about 0.2% with respect to the CPU/OpenCL versions. We will not port this to CPU given the considerable slow down in speed it would add to it. Nevertheless, this accuracy boost is almost insignificant so the CPU/OpenCL versions can be safely used.\n",
      "-------------------------------- END WARNING --------------------------------\n",
      "Empty frame detected, frame number 76 of 77. In /Users/uni/opt/openpose/src/openpose/producer/producer.cpp:checkFrameIntegrity():290\n",
      "Empty frame detected, frame number 76 of 77. In /Users/uni/opt/openpose/src/openpose/producer/producer.cpp:checkFrameIntegrity():290\n",
      "Empty frame detected, frame number 76 of 77. In /Users/uni/opt/openpose/src/openpose/producer/producer.cpp:checkFrameIntegrity():290\n",
      "OpenPose demo successfully finished. Total time: 93.494168 seconds.\n",
      "ffmpeg version 5.0.1 Copyright (c) 2000-2022 the FFmpeg developers\n",
      "  built with Apple clang version 13.1.6 (clang-1316.0.21.2.5)\n",
      "  configuration: --prefix=/opt/homebrew/Cellar/ffmpeg/5.0.1_3 --enable-shared --enable-pthreads --enable-version3 --cc=clang --host-cflags= --host-ldflags= --enable-ffplay --enable-gnutls --enable-gpl --enable-libaom --enable-libbluray --enable-libdav1d --enable-libmp3lame --enable-libopus --enable-librav1e --enable-librist --enable-librubberband --enable-libsnappy --enable-libsrt --enable-libtesseract --enable-libtheora --enable-libvidstab --enable-libvmaf --enable-libvorbis --enable-libvpx --enable-libwebp --enable-libx264 --enable-libx265 --enable-libxml2 --enable-libxvid --enable-lzma --enable-libfontconfig --enable-libfreetype --enable-frei0r --enable-libass --enable-libopencore-amrnb --enable-libopencore-amrwb --enable-libopenjpeg --enable-libspeex --enable-libsoxr --enable-libzmq --enable-libzimg --disable-libjack --disable-indev=jack --enable-videotoolbox --enable-neon\n",
      "  libavutil      57. 17.100 / 57. 17.100\n",
      "  libavcodec     59. 18.100 / 59. 18.100\n",
      "  libavformat    59. 16.100 / 59. 16.100\n",
      "  libavdevice    59.  4.100 / 59.  4.100\n",
      "  libavfilter     8. 24.100 /  8. 24.100\n",
      "  libswscale      6.  4.100 /  6.  4.100\n",
      "  libswresample   4.  3.100 /  4.  3.100\n",
      "  libpostproc    56.  3.100 / 56.  3.100\n",
      "Input #0, avi, from '/Users/uni/opt/output_train2/video/forehand_1.avi':\n",
      "  Metadata:\n",
      "    software        : Lavf58.76.100\n",
      "  Duration: 00:00:02.53, start: 0.000000, bitrate: 7909 kb/s\n",
      "  Stream #0:0: Video: mjpeg (Baseline) (MJPG / 0x47504A4D), yuvj420p(pc, bt470bg/unknown/unknown), 640x360, 7991 kb/s, 30 fps, 30 tbr, 30 tbn\n",
      "Stream mapping:\n",
      "  Stream #0:0 -> #0:0 (mjpeg (native) -> h264 (libx264))\n",
      "Press [q] to stop, [?] for help\n",
      "\u001b[1;36m[libx264 @ 0x13c607670] \u001b[0musing cpu capabilities: ARMv8 NEON\n",
      "\u001b[1;36m[libx264 @ 0x13c607670] \u001b[0mprofile High, level 3.0, 4:2:0, 8-bit\n",
      "\u001b[1;36m[libx264 @ 0x13c607670] \u001b[0m264 - core 164 r3095 baee400 - H.264/MPEG-4 AVC codec - Copyleft 2003-2022 - http://www.videolan.org/x264.html - options: cabac=1 ref=3 deblock=1:0:0 analyse=0x3:0x113 me=hex subme=7 psy=1 psy_rd=1.00:0.00 mixed_ref=1 me_range=16 chroma_me=1 trellis=1 8x8dct=1 cqm=0 deadzone=21,11 fast_pskip=1 chroma_qp_offset=-2 threads=11 lookahead_threads=1 sliced_threads=0 nr=0 decimate=1 interlaced=0 bluray_compat=0 constrained_intra=0 bframes=3 b_pyramid=2 b_adapt=1 b_bias=0 direct=1 weightb=1 open_gop=0 weightp=2 keyint=250 keyint_min=25 scenecut=40 intra_refresh=0 rc_lookahead=40 rc=crf mbtree=1 crf=23.0 qcomp=0.60 qpmin=0 qpmax=69 qpstep=4 ip_ratio=1.40 aq=1:1.00\n",
      "Output #0, mp4, to '/Users/uni/opt/output_train2/video/forehand_1.mp4':\n",
      "  Metadata:\n",
      "    software        : Lavf58.76.100\n",
      "    encoder         : Lavf59.16.100\n",
      "  Stream #0:0: Video: h264 (avc1 / 0x31637661), yuvj420p(pc, bt470bg/unknown/unknown, progressive), 640x360, q=2-31, 30 fps, 15360 tbn\n",
      "    Metadata:\n",
      "      encoder         : Lavc59.18.100 libx264\n",
      "    Side data:\n",
      "      cpb: bitrate max/min/avg: 0/0/0 buffer size: 0 vbv_delay: N/A\n",
      "frame=   76 fps=0.0 q=-1.0 Lsize=     313kB time=00:00:02.43 bitrate=1053.1kbits/s speed=12.5x    \n",
      "video:311kB audio:0kB subtitle:0kB other streams:0kB global headers:0kB muxing overhead: 0.544884%\n",
      "\u001b[1;36m[libx264 @ 0x13c607670] \u001b[0mframe I:1     Avg QP:21.10  size: 31234\n",
      "\u001b[1;36m[libx264 @ 0x13c607670] \u001b[0mframe P:28    Avg QP:23.13  size:  7753\n",
      "\u001b[1;36m[libx264 @ 0x13c607670] \u001b[0mframe B:47    Avg QP:29.03  size:  1481\n",
      "\u001b[1;36m[libx264 @ 0x13c607670] \u001b[0mconsecutive B-frames:  9.2% 21.1% 11.8% 57.9%\n",
      "\u001b[1;36m[libx264 @ 0x13c607670] \u001b[0mmb I  I16..4: 34.1% 56.0%  9.9%\n",
      "\u001b[1;36m[libx264 @ 0x13c607670] \u001b[0mmb P  I16..4:  6.7%  9.1%  2.4%  P16..4: 19.6%  8.9%  8.3%  0.0%  0.0%    skip:45.1%\n",
      "\u001b[1;36m[libx264 @ 0x13c607670] \u001b[0mmb B  I16..4:  0.9%  1.6%  0.2%  B16..8: 23.3%  4.4%  1.7%  direct: 1.2%  skip:66.8%  L0:53.5% L1:38.3% BI: 8.1%\n",
      "\u001b[1;36m[libx264 @ 0x13c607670] \u001b[0m8x8 transform intra:52.6% inter:75.8%\n",
      "\u001b[1;36m[libx264 @ 0x13c607670] \u001b[0mcoded y,uvDC,uvAC intra: 33.1% 47.3% 14.1% inter: 10.4% 10.1% 4.1%\n",
      "\u001b[1;36m[libx264 @ 0x13c607670] \u001b[0mi16 v,h,dc,p: 26% 64% 10%  1%\n",
      "\u001b[1;36m[libx264 @ 0x13c607670] \u001b[0mi8 v,h,dc,ddl,ddr,vr,hd,vl,hu: 13% 35% 40%  2%  1%  1%  2%  1%  5%\n",
      "\u001b[1;36m[libx264 @ 0x13c607670] \u001b[0mi4 v,h,dc,ddl,ddr,vr,hd,vl,hu: 18% 54% 12%  2%  3%  4%  3%  3%  2%\n",
      "\u001b[1;36m[libx264 @ 0x13c607670] \u001b[0mi8c dc,h,v,p: 36% 47% 16%  2%\n",
      "\u001b[1;36m[libx264 @ 0x13c607670] \u001b[0mWeighted P-Frames: Y:0.0% UV:0.0%\n",
      "\u001b[1;36m[libx264 @ 0x13c607670] \u001b[0mref P L0: 73.7% 11.3%  9.6%  5.4%\n",
      "\u001b[1;36m[libx264 @ 0x13c607670] \u001b[0mref B L0: 78.5% 18.1%  3.4%\n",
      "\u001b[1;36m[libx264 @ 0x13c607670] \u001b[0mref B L1: 96.2%  3.8%\n",
      "\u001b[1;36m[libx264 @ 0x13c607670] \u001b[0mkb/s:1003.93\n",
      "The output of forehand_1 has been stored\n",
      "Starting OpenPose demo...\n",
      "Configuring OpenPose...\n",
      "Starting thread(s)...\n",
      "---------------------------------- WARNING ----------------------------------\n",
      "We have introduced an additional boost in accuracy in the CUDA version of about 0.2% with respect to the CPU/OpenCL versions. We will not port this to CPU given the considerable slow down in speed it would add to it. Nevertheless, this accuracy boost is almost insignificant so the CPU/OpenCL versions can be safely used.\n",
      "-------------------------------- END WARNING --------------------------------\n",
      "Empty frame detected, frame number 72 of 73. In /Users/uni/opt/openpose/src/openpose/producer/producer.cpp:checkFrameIntegrity():290\n",
      "Empty frame detected, frame number 72 of 73. In /Users/uni/opt/openpose/src/openpose/producer/producer.cpp:checkFrameIntegrity():290\n",
      "Empty frame detected, frame number 72 of 73. In /Users/uni/opt/openpose/src/openpose/producer/producer.cpp:checkFrameIntegrity():290\n",
      "OpenPose demo successfully finished. Total time: 107.305771 seconds.\n",
      "ffmpeg version 5.0.1 Copyright (c) 2000-2022 the FFmpeg developers\n",
      "  built with Apple clang version 13.1.6 (clang-1316.0.21.2.5)\n",
      "  configuration: --prefix=/opt/homebrew/Cellar/ffmpeg/5.0.1_3 --enable-shared --enable-pthreads --enable-version3 --cc=clang --host-cflags= --host-ldflags= --enable-ffplay --enable-gnutls --enable-gpl --enable-libaom --enable-libbluray --enable-libdav1d --enable-libmp3lame --enable-libopus --enable-librav1e --enable-librist --enable-librubberband --enable-libsnappy --enable-libsrt --enable-libtesseract --enable-libtheora --enable-libvidstab --enable-libvmaf --enable-libvorbis --enable-libvpx --enable-libwebp --enable-libx264 --enable-libx265 --enable-libxml2 --enable-libxvid --enable-lzma --enable-libfontconfig --enable-libfreetype --enable-frei0r --enable-libass --enable-libopencore-amrnb --enable-libopencore-amrwb --enable-libopenjpeg --enable-libspeex --enable-libsoxr --enable-libzmq --enable-libzimg --disable-libjack --disable-indev=jack --enable-videotoolbox --enable-neon\n",
      "  libavutil      57. 17.100 / 57. 17.100\n",
      "  libavcodec     59. 18.100 / 59. 18.100\n",
      "  libavformat    59. 16.100 / 59. 16.100\n",
      "  libavdevice    59.  4.100 / 59.  4.100\n",
      "  libavfilter     8. 24.100 /  8. 24.100\n",
      "  libswscale      6.  4.100 /  6.  4.100\n",
      "  libswresample   4.  3.100 /  4.  3.100\n",
      "  libpostproc    56.  3.100 / 56.  3.100\n",
      "Input #0, avi, from '/Users/uni/opt/output_train3/video/forehand_2.avi':\n",
      "  Metadata:\n",
      "    software        : Lavf58.76.100\n",
      "  Duration: 00:00:02.40, start: 0.000000, bitrate: 6970 kb/s\n",
      "  Stream #0:0: Video: mjpeg (Baseline) (MJPG / 0x47504A4D), yuvj420p(pc, bt470bg/unknown/unknown), 640x360, 7043 kb/s, 30 fps, 30 tbr, 30 tbn\n",
      "Stream mapping:\n",
      "  Stream #0:0 -> #0:0 (mjpeg (native) -> h264 (libx264))\n",
      "Press [q] to stop, [?] for help\n",
      "\u001b[1;36m[libx264 @ 0x138607d20] \u001b[0musing cpu capabilities: ARMv8 NEON\n",
      "\u001b[1;36m[libx264 @ 0x138607d20] \u001b[0mprofile High, level 3.0, 4:2:0, 8-bit\n",
      "\u001b[1;36m[libx264 @ 0x138607d20] \u001b[0m264 - core 164 r3095 baee400 - H.264/MPEG-4 AVC codec - Copyleft 2003-2022 - http://www.videolan.org/x264.html - options: cabac=1 ref=3 deblock=1:0:0 analyse=0x3:0x113 me=hex subme=7 psy=1 psy_rd=1.00:0.00 mixed_ref=1 me_range=16 chroma_me=1 trellis=1 8x8dct=1 cqm=0 deadzone=21,11 fast_pskip=1 chroma_qp_offset=-2 threads=11 lookahead_threads=1 sliced_threads=0 nr=0 decimate=1 interlaced=0 bluray_compat=0 constrained_intra=0 bframes=3 b_pyramid=2 b_adapt=1 b_bias=0 direct=1 weightb=1 open_gop=0 weightp=2 keyint=250 keyint_min=25 scenecut=40 intra_refresh=0 rc_lookahead=40 rc=crf mbtree=1 crf=23.0 qcomp=0.60 qpmin=0 qpmax=69 qpstep=4 ip_ratio=1.40 aq=1:1.00\n",
      "Output #0, mp4, to '/Users/uni/opt/output_train3/video/forehand_2.mp4':\n",
      "  Metadata:\n",
      "    software        : Lavf58.76.100\n",
      "    encoder         : Lavf59.16.100\n",
      "  Stream #0:0: Video: h264 (avc1 / 0x31637661), yuvj420p(pc, bt470bg/unknown/unknown, progressive), 640x360, q=2-31, 30 fps, 15360 tbn\n",
      "    Metadata:\n",
      "      encoder         : Lavc59.18.100 libx264\n",
      "    Side data:\n",
      "      cpb: bitrate max/min/avg: 0/0/0 buffer size: 0 vbv_delay: N/A\n"
     ]
    },
    {
     "name": "stdout",
     "output_type": "stream",
     "text": [
      "frame=   72 fps=0.0 q=-1.0 Lsize=     364kB time=00:00:02.30 bitrate=1296.4kbits/s speed=9.86x    \n",
      "video:362kB audio:0kB subtitle:0kB other streams:0kB global headers:0kB muxing overhead: 0.422464%\n",
      "\u001b[1;36m[libx264 @ 0x138607d20] \u001b[0mframe I:1     Avg QP:22.58  size: 24963\n",
      "\u001b[1;36m[libx264 @ 0x138607d20] \u001b[0mframe P:38    Avg QP:23.51  size:  7422\n",
      "\u001b[1;36m[libx264 @ 0x138607d20] \u001b[0mframe B:33    Avg QP:28.69  size:  1924\n",
      "\u001b[1;36m[libx264 @ 0x138607d20] \u001b[0mconsecutive B-frames: 27.8% 22.2% 33.3% 16.7%\n",
      "\u001b[1;36m[libx264 @ 0x138607d20] \u001b[0mmb I  I16..4: 33.9% 59.3%  6.7%\n",
      "\u001b[1;36m[libx264 @ 0x138607d20] \u001b[0mmb P  I16..4:  4.1%  7.9%  1.5%  P16..4: 22.7% 12.5% 10.5%  0.0%  0.0%    skip:40.8%\n",
      "\u001b[1;36m[libx264 @ 0x138607d20] \u001b[0mmb B  I16..4:  1.1%  0.9%  0.2%  B16..8: 38.2%  7.0%  2.3%  direct: 1.9%  skip:48.5%  L0:57.3% L1:34.3% BI: 8.4%\n",
      "\u001b[1;36m[libx264 @ 0x138607d20] \u001b[0m8x8 transform intra:56.9% inter:74.5%\n",
      "\u001b[1;36m[libx264 @ 0x138607d20] \u001b[0mcoded y,uvDC,uvAC intra: 40.8% 55.5% 13.9% inter: 14.9% 12.8% 3.7%\n",
      "\u001b[1;36m[libx264 @ 0x138607d20] \u001b[0mi16 v,h,dc,p: 28% 64%  7%  1%\n",
      "\u001b[1;36m[libx264 @ 0x138607d20] \u001b[0mi8 v,h,dc,ddl,ddr,vr,hd,vl,hu: 11% 40% 36%  2%  1%  1%  2%  1%  7%\n",
      "\u001b[1;36m[libx264 @ 0x138607d20] \u001b[0mi4 v,h,dc,ddl,ddr,vr,hd,vl,hu: 23% 45% 13%  3%  3%  3%  4%  3%  3%\n",
      "\u001b[1;36m[libx264 @ 0x138607d20] \u001b[0mi8c dc,h,v,p: 35% 47% 15%  3%\n",
      "\u001b[1;36m[libx264 @ 0x138607d20] \u001b[0mWeighted P-Frames: Y:0.0% UV:0.0%\n",
      "\u001b[1;36m[libx264 @ 0x138607d20] \u001b[0mref P L0: 69.3% 10.9% 13.3%  6.4%\n",
      "\u001b[1;36m[libx264 @ 0x138607d20] \u001b[0mref B L0: 76.7% 19.7%  3.6%\n",
      "\u001b[1;36m[libx264 @ 0x138607d20] \u001b[0mref B L1: 98.5%  1.5%\n",
      "\u001b[1;36m[libx264 @ 0x138607d20] \u001b[0mkb/s:1234.89\n",
      "The output of forehand_2 has been stored\n"
     ]
    },
    {
     "data": {
      "text/plain": [
       "'The population was successfully completed'"
      ]
     },
     "execution_count": 194,
     "metadata": {},
     "output_type": "execute_result"
    }
   ],
   "source": [
    "populate()"
   ]
  },
  {
   "cell_type": "markdown",
   "id": "092f28d7",
   "metadata": {},
   "source": [
    "## step3 - build train keypoint dataframe"
   ]
  },
  {
   "cell_type": "code",
   "execution_count": 486,
   "id": "838bb31a",
   "metadata": {},
   "outputs": [],
   "source": [
    "def loadTrainData():\n",
    "    '''function that translates all output training json files in readable pandas dataframes.\n",
    "    The columns are:file number, frame number, x and y of each of the 24 keypoints that openpose identified'''\n",
    "    \n",
    "    path_out = dir_path\n",
    "    \n",
    "    #number of output train files\n",
    "    numOfSet= len(train_dict)\n",
    "    \n",
    "\n",
    "    #initialize empty dataframe\n",
    "    train = pd.DataFrame()\n",
    "    \n",
    "    #for each training video output\n",
    "    for d in range(0, numOfSet):\n",
    "        \n",
    "        #path to json file directory\n",
    "        path = os.path.join(path_out, 'output_train'+ str(d)+'/json/')\n",
    "        \n",
    "        #frame numbers\n",
    "        Frames = [name for name in os.listdir(path)]\n",
    "        \n",
    "        #for each frame of training video\n",
    "        for frame_num,f in enumerate(Frames):\n",
    "            \n",
    "            #find path to json file of that frame\n",
    "            file = open(path + f)\n",
    "\n",
    "            #load file\n",
    "            j = json.load(file)\n",
    "            \n",
    "            #initialize row\n",
    "            row = [[]]\n",
    "            \n",
    "            #if there is at least one person in frame\n",
    "            if (j['people'] != []):\n",
    "                \n",
    "                #in order to find main player out of all people identified we save for each element identified\n",
    "                #the size (difference between yhead-yfoot), the biggest player is the one closest to the camera\n",
    "                #and so our target\n",
    "                identify = []\n",
    "                for i in j['people']:\n",
    "                    body_size= (i['pose_keypoints_2d'][1])-(i['pose_keypoints_2d'][33])\n",
    "                    identify.append(body_size)\n",
    "                z = identify.index(max(identify))\n",
    "                      \n",
    "                #add keypoints found\n",
    "                row[0] += j['people'][z]['pose_keypoints_2d']\n",
    "            else:\n",
    "                continue\n",
    "            #then we initialize the columns\n",
    "            columns =  ['file_num', 'frame_num']\n",
    "            for i in range(25):\n",
    "                X = 'X' + str(i)\n",
    "                Y = 'Y' + str(i)\n",
    "                P = 'P' + str(i)\n",
    "                columns += [X, Y, P]\n",
    "            \n",
    "            #since 25 keypoints and (X,Y,P) each keypoint\n",
    "            if (len(row[0]) == 75):\n",
    "                \n",
    "                    #complete row\n",
    "                    row = [d] + [frame_num] + row[0]\n",
    "                    \n",
    "                    #build tmp dataframe\n",
    "                    tmp = pd.DataFrame ([row], columns=columns)\n",
    "                    \n",
    "                    #concatenate with existing one\n",
    "                    train = pd.concat([train,tmp], ignore_index=True)\n",
    "                    \n",
    "                    #start over\n",
    "                    row=[[]]\n",
    "               \n",
    "    train = train.drop(list(train.filter(like='P', axis=1)), axis = 1)\n",
    "    return train"
   ]
  },
  {
   "cell_type": "code",
   "execution_count": 487,
   "id": "1d785eaa",
   "metadata": {},
   "outputs": [],
   "source": [
    "trainData= loadTrainData()"
   ]
  },
  {
   "cell_type": "markdown",
   "id": "f02ca952",
   "metadata": {},
   "source": [
    "## step4 - define labels"
   ]
  },
  {
   "cell_type": "code",
   "execution_count": 299,
   "id": "346cd938",
   "metadata": {},
   "outputs": [
    {
     "data": {
      "text/html": [
       "<div>\n",
       "<style scoped>\n",
       "    .dataframe tbody tr th:only-of-type {\n",
       "        vertical-align: middle;\n",
       "    }\n",
       "\n",
       "    .dataframe tbody tr th {\n",
       "        vertical-align: top;\n",
       "    }\n",
       "\n",
       "    .dataframe thead th {\n",
       "        text-align: right;\n",
       "    }\n",
       "</style>\n",
       "<table border=\"1\" class=\"dataframe\">\n",
       "  <thead>\n",
       "    <tr style=\"text-align: right;\">\n",
       "      <th></th>\n",
       "      <th>label_names</th>\n",
       "      <th>label_nums</th>\n",
       "    </tr>\n",
       "  </thead>\n",
       "  <tbody>\n",
       "    <tr>\n",
       "      <th>0</th>\n",
       "      <td>forehand</td>\n",
       "      <td>0</td>\n",
       "    </tr>\n",
       "    <tr>\n",
       "      <th>1</th>\n",
       "      <td>backhand</td>\n",
       "      <td>1</td>\n",
       "    </tr>\n",
       "    <tr>\n",
       "      <th>2</th>\n",
       "      <td>serve</td>\n",
       "      <td>2</td>\n",
       "    </tr>\n",
       "  </tbody>\n",
       "</table>\n",
       "</div>"
      ],
      "text/plain": [
       "  label_names  label_nums\n",
       "0    forehand           0\n",
       "1    backhand           1\n",
       "2       serve           2"
      ]
     },
     "execution_count": 299,
     "metadata": {},
     "output_type": "execute_result"
    }
   ],
   "source": [
    "#we assign for each tennis shot a unique number\n",
    "label_dict = {'forehand':0, 'backhand':1, 'serve':2}\n",
    "\n",
    "#we build dataframe to represent the assignment\n",
    "label_df={'label_names':['forehand','backhand','serve'], 'label_nums':[0,1,2]}\n",
    "df = pd.DataFrame(data=label_df)\n",
    "df"
   ]
  },
  {
   "cell_type": "markdown",
   "id": "1ee2a859",
   "metadata": {},
   "source": [
    "## step5 - manually assign labels"
   ]
  },
  {
   "cell_type": "code",
   "execution_count": 300,
   "id": "461eca0d",
   "metadata": {},
   "outputs": [],
   "source": [
    "#this step could be a nightmare, assigning each frame with a label number. \n",
    "#We insted make it efficient taking two assumptions:\n",
    "#  1) all training files are saved with shotname+_+number\n",
    "#  2) we assume that each training file represents only one stroke type (hence it can give that name to the file)\n",
    "# so our implementation directly taking the name from the filename adds the correspondinf lable to all file's frames"
   ]
  },
  {
   "cell_type": "code",
   "execution_count": 301,
   "id": "bcc366a7",
   "metadata": {},
   "outputs": [],
   "source": [
    "\n",
    "def addTrainLabels():\n",
    "    '''function that returns the current train labels dataset, which is the dataframe that maps each training file\n",
    "    number to a label wrt the file name'''\n",
    "    \n",
    "    #each time the returned dataframe is up-to-date because it is compiled from scratch each time\n",
    "    trainLabels = pd.DataFrame()\n",
    "    col = ['file_num','label_num']\n",
    "    for name, num in train_dict.items():\n",
    "        n = df.loc[df['label_names']==(name.split('_')[0])][['label_nums']]\n",
    "        ndf = pd.DataFrame ([[num,int(n.apply(int))]], columns=col)\n",
    "        trainLabels= pd.concat([trainLabels,ndf], ignore_index=True)\n",
    "    return trainLabels\n"
   ]
  },
  {
   "cell_type": "code",
   "execution_count": 302,
   "id": "9bdacc28",
   "metadata": {},
   "outputs": [],
   "source": [
    "#create current training file-label dataframe\n",
    "training_labels = addTrainLabels()"
   ]
  },
  {
   "cell_type": "code",
   "execution_count": 303,
   "id": "36044cba",
   "metadata": {},
   "outputs": [],
   "source": [
    "def TrainedDataset(trainData, labels):\n",
    "    '''function that merges train dataframe with current label dataframe'''\n",
    "    train = pd.merge(trainData, labels, on=['file_num'],how = 'inner')\n",
    "    return train\n",
    "\n"
   ]
  },
  {
   "cell_type": "code",
   "execution_count": 304,
   "id": "4143d5dc",
   "metadata": {},
   "outputs": [
    {
     "data": {
      "text/html": [
       "<div>\n",
       "<style scoped>\n",
       "    .dataframe tbody tr th:only-of-type {\n",
       "        vertical-align: middle;\n",
       "    }\n",
       "\n",
       "    .dataframe tbody tr th {\n",
       "        vertical-align: top;\n",
       "    }\n",
       "\n",
       "    .dataframe thead th {\n",
       "        text-align: right;\n",
       "    }\n",
       "</style>\n",
       "<table border=\"1\" class=\"dataframe\">\n",
       "  <thead>\n",
       "    <tr style=\"text-align: right;\">\n",
       "      <th></th>\n",
       "      <th>file_num</th>\n",
       "      <th>frame_num</th>\n",
       "      <th>X0</th>\n",
       "      <th>Y0</th>\n",
       "      <th>X1</th>\n",
       "      <th>Y1</th>\n",
       "      <th>X2</th>\n",
       "      <th>Y2</th>\n",
       "      <th>X3</th>\n",
       "      <th>Y3</th>\n",
       "      <th>...</th>\n",
       "      <th>Y20</th>\n",
       "      <th>X21</th>\n",
       "      <th>Y21</th>\n",
       "      <th>X22</th>\n",
       "      <th>Y22</th>\n",
       "      <th>X23</th>\n",
       "      <th>Y23</th>\n",
       "      <th>X24</th>\n",
       "      <th>Y24</th>\n",
       "      <th>label_num</th>\n",
       "    </tr>\n",
       "  </thead>\n",
       "  <tbody>\n",
       "    <tr>\n",
       "      <th>0</th>\n",
       "      <td>0</td>\n",
       "      <td>0</td>\n",
       "      <td>0.000</td>\n",
       "      <td>0.000</td>\n",
       "      <td>117.887</td>\n",
       "      <td>115.932</td>\n",
       "      <td>114.937</td>\n",
       "      <td>115.919</td>\n",
       "      <td>0.000</td>\n",
       "      <td>0.000</td>\n",
       "      <td>...</td>\n",
       "      <td>169.740</td>\n",
       "      <td>125.709</td>\n",
       "      <td>168.769</td>\n",
       "      <td>0.000</td>\n",
       "      <td>0.000</td>\n",
       "      <td>0.000</td>\n",
       "      <td>0.000</td>\n",
       "      <td>122.780</td>\n",
       "      <td>169.711</td>\n",
       "      <td>1</td>\n",
       "    </tr>\n",
       "    <tr>\n",
       "      <th>1</th>\n",
       "      <td>0</td>\n",
       "      <td>1</td>\n",
       "      <td>0.000</td>\n",
       "      <td>0.000</td>\n",
       "      <td>450.438</td>\n",
       "      <td>184.400</td>\n",
       "      <td>463.165</td>\n",
       "      <td>182.436</td>\n",
       "      <td>486.642</td>\n",
       "      <td>181.473</td>\n",
       "      <td>...</td>\n",
       "      <td>337.988</td>\n",
       "      <td>490.566</td>\n",
       "      <td>334.067</td>\n",
       "      <td>423.089</td>\n",
       "      <td>316.484</td>\n",
       "      <td>425.014</td>\n",
       "      <td>315.493</td>\n",
       "      <td>443.608</td>\n",
       "      <td>323.315</td>\n",
       "      <td>1</td>\n",
       "    </tr>\n",
       "    <tr>\n",
       "      <th>2</th>\n",
       "      <td>0</td>\n",
       "      <td>2</td>\n",
       "      <td>420.172</td>\n",
       "      <td>172.655</td>\n",
       "      <td>440.701</td>\n",
       "      <td>184.427</td>\n",
       "      <td>446.533</td>\n",
       "      <td>182.444</td>\n",
       "      <td>0.000</td>\n",
       "      <td>0.000</td>\n",
       "      <td>...</td>\n",
       "      <td>336.036</td>\n",
       "      <td>484.735</td>\n",
       "      <td>324.312</td>\n",
       "      <td>421.106</td>\n",
       "      <td>320.358</td>\n",
       "      <td>423.106</td>\n",
       "      <td>318.407</td>\n",
       "      <td>441.678</td>\n",
       "      <td>324.308</td>\n",
       "      <td>1</td>\n",
       "    </tr>\n",
       "    <tr>\n",
       "      <th>3</th>\n",
       "      <td>0</td>\n",
       "      <td>3</td>\n",
       "      <td>413.318</td>\n",
       "      <td>182.459</td>\n",
       "      <td>432.861</td>\n",
       "      <td>195.149</td>\n",
       "      <td>429.955</td>\n",
       "      <td>194.209</td>\n",
       "      <td>423.104</td>\n",
       "      <td>210.825</td>\n",
       "      <td>...</td>\n",
       "      <td>347.722</td>\n",
       "      <td>462.209</td>\n",
       "      <td>343.834</td>\n",
       "      <td>425.047</td>\n",
       "      <td>323.313</td>\n",
       "      <td>427.975</td>\n",
       "      <td>321.374</td>\n",
       "      <td>445.562</td>\n",
       "      <td>326.252</td>\n",
       "      <td>1</td>\n",
       "    </tr>\n",
       "    <tr>\n",
       "      <th>4</th>\n",
       "      <td>0</td>\n",
       "      <td>4</td>\n",
       "      <td>0.000</td>\n",
       "      <td>0.000</td>\n",
       "      <td>451.422</td>\n",
       "      <td>184.435</td>\n",
       "      <td>466.108</td>\n",
       "      <td>183.406</td>\n",
       "      <td>490.570</td>\n",
       "      <td>190.251</td>\n",
       "      <td>...</td>\n",
       "      <td>338.954</td>\n",
       "      <td>489.610</td>\n",
       "      <td>333.089</td>\n",
       "      <td>434.825</td>\n",
       "      <td>319.383</td>\n",
       "      <td>436.800</td>\n",
       "      <td>317.472</td>\n",
       "      <td>450.476</td>\n",
       "      <td>324.294</td>\n",
       "      <td>1</td>\n",
       "    </tr>\n",
       "    <tr>\n",
       "      <th>...</th>\n",
       "      <td>...</td>\n",
       "      <td>...</td>\n",
       "      <td>...</td>\n",
       "      <td>...</td>\n",
       "      <td>...</td>\n",
       "      <td>...</td>\n",
       "      <td>...</td>\n",
       "      <td>...</td>\n",
       "      <td>...</td>\n",
       "      <td>...</td>\n",
       "      <td>...</td>\n",
       "      <td>...</td>\n",
       "      <td>...</td>\n",
       "      <td>...</td>\n",
       "      <td>...</td>\n",
       "      <td>...</td>\n",
       "      <td>...</td>\n",
       "      <td>...</td>\n",
       "      <td>...</td>\n",
       "      <td>...</td>\n",
       "      <td>...</td>\n",
       "    </tr>\n",
       "    <tr>\n",
       "      <th>252</th>\n",
       "      <td>3</td>\n",
       "      <td>67</td>\n",
       "      <td>0.000</td>\n",
       "      <td>0.000</td>\n",
       "      <td>322.312</td>\n",
       "      <td>163.859</td>\n",
       "      <td>336.005</td>\n",
       "      <td>165.792</td>\n",
       "      <td>339.958</td>\n",
       "      <td>200.063</td>\n",
       "      <td>...</td>\n",
       "      <td>301.797</td>\n",
       "      <td>284.180</td>\n",
       "      <td>302.753</td>\n",
       "      <td>333.115</td>\n",
       "      <td>308.622</td>\n",
       "      <td>332.088</td>\n",
       "      <td>309.618</td>\n",
       "      <td>314.503</td>\n",
       "      <td>307.680</td>\n",
       "      <td>0</td>\n",
       "    </tr>\n",
       "    <tr>\n",
       "      <th>253</th>\n",
       "      <td>3</td>\n",
       "      <td>68</td>\n",
       "      <td>356.579</td>\n",
       "      <td>146.234</td>\n",
       "      <td>337.955</td>\n",
       "      <td>158.941</td>\n",
       "      <td>333.075</td>\n",
       "      <td>160.907</td>\n",
       "      <td>323.314</td>\n",
       "      <td>186.368</td>\n",
       "      <td>...</td>\n",
       "      <td>284.150</td>\n",
       "      <td>309.590</td>\n",
       "      <td>285.141</td>\n",
       "      <td>348.718</td>\n",
       "      <td>302.736</td>\n",
       "      <td>342.846</td>\n",
       "      <td>304.728</td>\n",
       "      <td>324.283</td>\n",
       "      <td>301.804</td>\n",
       "      <td>0</td>\n",
       "    </tr>\n",
       "    <tr>\n",
       "      <th>254</th>\n",
       "      <td>3</td>\n",
       "      <td>69</td>\n",
       "      <td>0.000</td>\n",
       "      <td>0.000</td>\n",
       "      <td>324.291</td>\n",
       "      <td>148.233</td>\n",
       "      <td>338.939</td>\n",
       "      <td>151.151</td>\n",
       "      <td>336.022</td>\n",
       "      <td>170.704</td>\n",
       "      <td>...</td>\n",
       "      <td>279.307</td>\n",
       "      <td>306.678</td>\n",
       "      <td>285.162</td>\n",
       "      <td>337.969</td>\n",
       "      <td>286.140</td>\n",
       "      <td>340.920</td>\n",
       "      <td>288.078</td>\n",
       "      <td>333.086</td>\n",
       "      <td>288.107</td>\n",
       "      <td>0</td>\n",
       "    </tr>\n",
       "    <tr>\n",
       "      <th>255</th>\n",
       "      <td>3</td>\n",
       "      <td>70</td>\n",
       "      <td>0.000</td>\n",
       "      <td>0.000</td>\n",
       "      <td>324.258</td>\n",
       "      <td>159.931</td>\n",
       "      <td>335.029</td>\n",
       "      <td>161.904</td>\n",
       "      <td>337.983</td>\n",
       "      <td>188.298</td>\n",
       "      <td>...</td>\n",
       "      <td>300.793</td>\n",
       "      <td>285.157</td>\n",
       "      <td>302.777</td>\n",
       "      <td>340.936</td>\n",
       "      <td>305.724</td>\n",
       "      <td>338.970</td>\n",
       "      <td>306.693</td>\n",
       "      <td>319.409</td>\n",
       "      <td>302.745</td>\n",
       "      <td>0</td>\n",
       "    </tr>\n",
       "    <tr>\n",
       "      <th>256</th>\n",
       "      <td>3</td>\n",
       "      <td>71</td>\n",
       "      <td>0.000</td>\n",
       "      <td>0.000</td>\n",
       "      <td>327.209</td>\n",
       "      <td>153.124</td>\n",
       "      <td>331.097</td>\n",
       "      <td>155.046</td>\n",
       "      <td>332.136</td>\n",
       "      <td>180.503</td>\n",
       "      <td>...</td>\n",
       "      <td>295.909</td>\n",
       "      <td>290.054</td>\n",
       "      <td>288.078</td>\n",
       "      <td>347.759</td>\n",
       "      <td>302.784</td>\n",
       "      <td>342.859</td>\n",
       "      <td>305.685</td>\n",
       "      <td>324.304</td>\n",
       "      <td>303.741</td>\n",
       "      <td>0</td>\n",
       "    </tr>\n",
       "  </tbody>\n",
       "</table>\n",
       "<p>257 rows × 53 columns</p>\n",
       "</div>"
      ],
      "text/plain": [
       "     file_num  frame_num       X0       Y0       X1       Y1       X2  \\\n",
       "0           0          0    0.000    0.000  117.887  115.932  114.937   \n",
       "1           0          1    0.000    0.000  450.438  184.400  463.165   \n",
       "2           0          2  420.172  172.655  440.701  184.427  446.533   \n",
       "3           0          3  413.318  182.459  432.861  195.149  429.955   \n",
       "4           0          4    0.000    0.000  451.422  184.435  466.108   \n",
       "..        ...        ...      ...      ...      ...      ...      ...   \n",
       "252         3         67    0.000    0.000  322.312  163.859  336.005   \n",
       "253         3         68  356.579  146.234  337.955  158.941  333.075   \n",
       "254         3         69    0.000    0.000  324.291  148.233  338.939   \n",
       "255         3         70    0.000    0.000  324.258  159.931  335.029   \n",
       "256         3         71    0.000    0.000  327.209  153.124  331.097   \n",
       "\n",
       "          Y2       X3       Y3  ...      Y20      X21      Y21      X22  \\\n",
       "0    115.919    0.000    0.000  ...  169.740  125.709  168.769    0.000   \n",
       "1    182.436  486.642  181.473  ...  337.988  490.566  334.067  423.089   \n",
       "2    182.444    0.000    0.000  ...  336.036  484.735  324.312  421.106   \n",
       "3    194.209  423.104  210.825  ...  347.722  462.209  343.834  425.047   \n",
       "4    183.406  490.570  190.251  ...  338.954  489.610  333.089  434.825   \n",
       "..       ...      ...      ...  ...      ...      ...      ...      ...   \n",
       "252  165.792  339.958  200.063  ...  301.797  284.180  302.753  333.115   \n",
       "253  160.907  323.314  186.368  ...  284.150  309.590  285.141  348.718   \n",
       "254  151.151  336.022  170.704  ...  279.307  306.678  285.162  337.969   \n",
       "255  161.904  337.983  188.298  ...  300.793  285.157  302.777  340.936   \n",
       "256  155.046  332.136  180.503  ...  295.909  290.054  288.078  347.759   \n",
       "\n",
       "         Y22      X23      Y23      X24      Y24  label_num  \n",
       "0      0.000    0.000    0.000  122.780  169.711          1  \n",
       "1    316.484  425.014  315.493  443.608  323.315          1  \n",
       "2    320.358  423.106  318.407  441.678  324.308          1  \n",
       "3    323.313  427.975  321.374  445.562  326.252          1  \n",
       "4    319.383  436.800  317.472  450.476  324.294          1  \n",
       "..       ...      ...      ...      ...      ...        ...  \n",
       "252  308.622  332.088  309.618  314.503  307.680          0  \n",
       "253  302.736  342.846  304.728  324.283  301.804          0  \n",
       "254  286.140  340.920  288.078  333.086  288.107          0  \n",
       "255  305.724  338.970  306.693  319.409  302.745          0  \n",
       "256  302.784  342.859  305.685  324.304  303.741          0  \n",
       "\n",
       "[257 rows x 53 columns]"
      ]
     },
     "execution_count": 304,
     "metadata": {},
     "output_type": "execute_result"
    }
   ],
   "source": [
    "#final training dataframe\n",
    "final_train=TrainedDataset(trainData, training_labels)\n",
    "final_train"
   ]
  },
  {
   "cell_type": "markdown",
   "id": "9fe709f0",
   "metadata": {},
   "source": [
    "## step6 - train an SVM model"
   ]
  },
  {
   "cell_type": "code",
   "execution_count": 362,
   "id": "0b2ed8e1",
   "metadata": {},
   "outputs": [],
   "source": [
    "#we will use Scikit-Learn's support vector classifier to train an SVM model on our data\n",
    "svm = SVC(kernel = 'linear', probability = True)"
   ]
  },
  {
   "cell_type": "code",
   "execution_count": 366,
   "id": "1da341d9",
   "metadata": {},
   "outputs": [],
   "source": [
    "def splitdata(trainData):\n",
    "    X = trainData.iloc[:, 2:-1]\n",
    "    y = trainData.iloc[:, -1].values\n",
    "    X_train, X_val, y_train, y_val = train_test_split(X, y, test_size = 0.2)\n",
    "    return X_train, X_val, y_train, y_val"
   ]
  },
  {
   "cell_type": "code",
   "execution_count": 367,
   "id": "65473ca1",
   "metadata": {},
   "outputs": [],
   "source": [
    "def train(trainData):\n",
    "    X_train, X_val, y_train, y_val = splitdata(trainData)\n",
    "    svm.fit(X_train, y_train)\n",
    "    y_pred = svm.predict(X_val)\n",
    "    print(classification_report(y_val, y_pred))\n",
    "    return svm"
   ]
  },
  {
   "cell_type": "code",
   "execution_count": 368,
   "id": "0e3c5c80",
   "metadata": {},
   "outputs": [
    {
     "name": "stdout",
     "output_type": "stream",
     "text": [
      "              precision    recall  f1-score   support\n",
      "\n",
      "           0       1.00      0.87      0.93        31\n",
      "           1       0.84      1.00      0.91        21\n",
      "\n",
      "    accuracy                           0.92        52\n",
      "   macro avg       0.92      0.94      0.92        52\n",
      "weighted avg       0.94      0.92      0.92        52\n",
      "\n"
     ]
    }
   ],
   "source": [
    "SVM = train(final_train)"
   ]
  },
  {
   "cell_type": "markdown",
   "id": "22515aee",
   "metadata": {},
   "source": [
    "## step7 - load test data"
   ]
  },
  {
   "cell_type": "code",
   "execution_count": 274,
   "id": "aaa5db7e",
   "metadata": {},
   "outputs": [],
   "source": [
    "def buildTestData(video):\n",
    "        ''' function that firstly builds directories to hold test files openpose result and then runs openpose. \n",
    "    \n",
    "        In particular for each file:\n",
    "        notebook-directory-path  --> train - directory of training videos -> output_test_0 --> images\n",
    "                                                                                        --> json\n",
    "                                                                                        --> video (mp4)\n",
    "        NB: 3 assumptions: \n",
    "            - input video is in '.avi'\n",
    "            - filename format: test + _ + number '''\n",
    "\n",
    "        #filename without extenction\n",
    "        vid = video[:-4]\n",
    "        \n",
    "        #path to training video\n",
    "        video_path = os.path.join(test_dir,video)\n",
    "        \n",
    "        #path to output of openpose\n",
    "        train_out_dir_path = os.path.join(dir_path, 'output_'+vid+'/')\n",
    "        os.mkdir(train_out_dir_path)\n",
    "\n",
    "        train_json = os.path.join(train_out_dir_path,'json/')\n",
    "        os.mkdir(train_json)\n",
    "            \n",
    "        train_images = os.path.join(train_out_dir_path,'images/')\n",
    "        os.mkdir(train_images)\n",
    "            \n",
    "        train_mp4 = os.path.join(train_out_dir_path,'video/')\n",
    "        os.mkdir(train_mp4)\n",
    "            \n",
    "        #path to save the video result\n",
    "        video_save = os.path.join(train_mp4,video)\n",
    "            \n",
    "        #openpose in action\n",
    "        !cd \"opt/openpose\" && build/examples/openpose/openpose.bin --video $video_path --write_json $train_json --display 0 --write_images $train_images --write_images_format jpg --write_video $video_save\n",
    "    \n",
    "        # convert the result into MP4\n",
    "        video_mp4 = os.path.join(train_mp4,vid+'.mp4')\n",
    "        !ffmpeg -y -loglevel info -i $video_save $video_mp4\n",
    "            \n",
    "        #print confirmation\n",
    "        print('The output of '+ vid + ' has been stored')\n",
    "        \n",
    "            \n",
    "        return 'The population was successfully completed'"
   ]
  },
  {
   "cell_type": "code",
   "execution_count": 276,
   "id": "b39c0ec5",
   "metadata": {},
   "outputs": [
    {
     "name": "stdout",
     "output_type": "stream",
     "text": [
      "Starting OpenPose demo...\n",
      "Configuring OpenPose...\n",
      "Starting thread(s)...\n",
      "---------------------------------- WARNING ----------------------------------\n",
      "We have introduced an additional boost in accuracy in the CUDA version of about 0.2% with respect to the CPU/OpenCL versions. We will not port this to CPU given the considerable slow down in speed it would add to it. Nevertheless, this accuracy boost is almost insignificant so the CPU/OpenCL versions can be safely used.\n",
      "-------------------------------- END WARNING --------------------------------\n",
      "Empty frame detected, frame number 329 of 330. In /Users/uni/opt/openpose/src/openpose/producer/producer.cpp:checkFrameIntegrity():290\n",
      "Empty frame detected, frame number 329 of 330. In /Users/uni/opt/openpose/src/openpose/producer/producer.cpp:checkFrameIntegrity():290\n",
      "Empty frame detected, frame number 329 of 330. In /Users/uni/opt/openpose/src/openpose/producer/producer.cpp:checkFrameIntegrity():290\n",
      "OpenPose demo successfully finished. Total time: 512.587124 seconds.\n",
      "ffmpeg version 5.0.1 Copyright (c) 2000-2022 the FFmpeg developers\n",
      "  built with Apple clang version 13.1.6 (clang-1316.0.21.2.5)\n",
      "  configuration: --prefix=/opt/homebrew/Cellar/ffmpeg/5.0.1_3 --enable-shared --enable-pthreads --enable-version3 --cc=clang --host-cflags= --host-ldflags= --enable-ffplay --enable-gnutls --enable-gpl --enable-libaom --enable-libbluray --enable-libdav1d --enable-libmp3lame --enable-libopus --enable-librav1e --enable-librist --enable-librubberband --enable-libsnappy --enable-libsrt --enable-libtesseract --enable-libtheora --enable-libvidstab --enable-libvmaf --enable-libvorbis --enable-libvpx --enable-libwebp --enable-libx264 --enable-libx265 --enable-libxml2 --enable-libxvid --enable-lzma --enable-libfontconfig --enable-libfreetype --enable-frei0r --enable-libass --enable-libopencore-amrnb --enable-libopencore-amrwb --enable-libopenjpeg --enable-libspeex --enable-libsoxr --enable-libzmq --enable-libzimg --disable-libjack --disable-indev=jack --enable-videotoolbox --enable-neon\n",
      "  libavutil      57. 17.100 / 57. 17.100\n",
      "  libavcodec     59. 18.100 / 59. 18.100\n",
      "  libavformat    59. 16.100 / 59. 16.100\n",
      "  libavdevice    59.  4.100 / 59.  4.100\n",
      "  libavfilter     8. 24.100 /  8. 24.100\n",
      "  libswscale      6.  4.100 /  6.  4.100\n",
      "  libswresample   4.  3.100 /  4.  3.100\n",
      "  libpostproc    56.  3.100 / 56.  3.100\n",
      "Input #0, avi, from '/Users/uni/opt/output_test_2/video/test_2.avi':\n",
      "  Metadata:\n",
      "    software        : Lavf58.76.100\n",
      "  Duration: 00:00:10.98, start: 0.000000, bitrate: 4954 kb/s\n",
      "  Stream #0:0: Video: mjpeg (Baseline) (MJPG / 0x47504A4D), yuvj420p(pc, bt470bg/unknown/unknown), 640x360, 4959 kb/s, 29.97 fps, 29.97 tbr, 29.97 tbn\n",
      "Stream mapping:\n",
      "  Stream #0:0 -> #0:0 (mjpeg (native) -> h264 (libx264))\n",
      "Press [q] to stop, [?] for help\n",
      "\u001b[1;36m[libx264 @ 0x13e606f30] \u001b[0musing cpu capabilities: ARMv8 NEON\n",
      "\u001b[1;36m[libx264 @ 0x13e606f30] \u001b[0mprofile High, level 3.0, 4:2:0, 8-bit\n",
      "\u001b[1;36m[libx264 @ 0x13e606f30] \u001b[0m264 - core 164 r3095 baee400 - H.264/MPEG-4 AVC codec - Copyleft 2003-2022 - http://www.videolan.org/x264.html - options: cabac=1 ref=3 deblock=1:0:0 analyse=0x3:0x113 me=hex subme=7 psy=1 psy_rd=1.00:0.00 mixed_ref=1 me_range=16 chroma_me=1 trellis=1 8x8dct=1 cqm=0 deadzone=21,11 fast_pskip=1 chroma_qp_offset=-2 threads=11 lookahead_threads=1 sliced_threads=0 nr=0 decimate=1 interlaced=0 bluray_compat=0 constrained_intra=0 bframes=3 b_pyramid=2 b_adapt=1 b_bias=0 direct=1 weightb=1 open_gop=0 weightp=2 keyint=250 keyint_min=25 scenecut=40 intra_refresh=0 rc_lookahead=40 rc=crf mbtree=1 crf=23.0 qcomp=0.60 qpmin=0 qpmax=69 qpstep=4 ip_ratio=1.40 aq=1:1.00\n",
      "Output #0, mp4, to '/Users/uni/opt/output_test_2/video/test_2.mp4':\n",
      "  Metadata:\n",
      "    software        : Lavf58.76.100\n",
      "    encoder         : Lavf59.16.100\n",
      "  Stream #0:0: Video: h264 (avc1 / 0x31637661), yuvj420p(pc, bt470bg/unknown/unknown, progressive), 640x360, q=2-31, 29.97 fps, 11988 tbn\n",
      "    Metadata:\n",
      "      encoder         : Lavc59.18.100 libx264\n",
      "    Side data:\n",
      "      cpb: bitrate max/min/avg: 0/0/0 buffer size: 0 vbv_delay: N/A\n",
      "frame=  329 fps=0.0 q=-1.0 Lsize=     875kB time=00:00:10.87 bitrate= 658.9kbits/s speed=21.5x    \n",
      "video:870kB audio:0kB subtitle:0kB other streams:0kB global headers:0kB muxing overhead: 0.524999%\n",
      "\u001b[1;36m[libx264 @ 0x13e606f30] \u001b[0mframe I:2     Avg QP:19.91  size: 19452\n",
      "\u001b[1;36m[libx264 @ 0x13e606f30] \u001b[0mframe P:109   Avg QP:21.94  size:  4612\n",
      "\u001b[1;36m[libx264 @ 0x13e606f30] \u001b[0mframe B:218   Avg QP:27.83  size:  1600\n",
      "\u001b[1;36m[libx264 @ 0x13e606f30] \u001b[0mconsecutive B-frames:  8.8%  6.1%  7.3% 77.8%\n",
      "\u001b[1;36m[libx264 @ 0x13e606f30] \u001b[0mmb I  I16..4: 29.6% 61.0%  9.5%\n",
      "\u001b[1;36m[libx264 @ 0x13e606f30] \u001b[0mmb P  I16..4:  5.7% 10.2%  2.2%  P16..4: 12.6%  5.6%  4.7%  0.0%  0.0%    skip:59.1%\n",
      "\u001b[1;36m[libx264 @ 0x13e606f30] \u001b[0mmb B  I16..4:  0.9%  1.9%  0.2%  B16..8: 18.5%  4.2%  1.6%  direct: 0.7%  skip:72.0%  L0:54.8% L1:39.0% BI: 6.2%\n",
      "\u001b[1;36m[libx264 @ 0x13e606f30] \u001b[0m8x8 transform intra:58.8% inter:69.3%\n",
      "\u001b[1;36m[libx264 @ 0x13e606f30] \u001b[0mcoded y,uvDC,uvAC intra: 39.7% 61.6% 14.6% inter: 6.2% 8.1% 4.0%\n",
      "\u001b[1;36m[libx264 @ 0x13e606f30] \u001b[0mi16 v,h,dc,p: 24% 56% 19%  1%\n",
      "\u001b[1;36m[libx264 @ 0x13e606f30] \u001b[0mi8 v,h,dc,ddl,ddr,vr,hd,vl,hu: 13% 30% 43%  4%  1%  1%  1%  1%  7%\n",
      "\u001b[1;36m[libx264 @ 0x13e606f30] \u001b[0mi4 v,h,dc,ddl,ddr,vr,hd,vl,hu: 27% 41% 11%  3%  3%  4%  3%  4%  3%\n",
      "\u001b[1;36m[libx264 @ 0x13e606f30] \u001b[0mi8c dc,h,v,p: 33% 44% 20%  2%\n",
      "\u001b[1;36m[libx264 @ 0x13e606f30] \u001b[0mWeighted P-Frames: Y:5.5% UV:0.0%\n",
      "\u001b[1;36m[libx264 @ 0x13e606f30] \u001b[0mref P L0: 63.7% 16.6% 12.0%  7.3%  0.5%\n",
      "\u001b[1;36m[libx264 @ 0x13e606f30] \u001b[0mref B L0: 76.7% 18.1%  5.2%\n",
      "\u001b[1;36m[libx264 @ 0x13e606f30] \u001b[0mref B L1: 92.4%  7.6%\n",
      "\u001b[1;36m[libx264 @ 0x13e606f30] \u001b[0mkb/s:648.99\n",
      "The output of test_2 has been stored\n"
     ]
    },
    {
     "data": {
      "text/plain": [
       "'The population was successfully completed'"
      ]
     },
     "execution_count": 276,
     "metadata": {},
     "output_type": "execute_result"
    }
   ],
   "source": [
    "buildTestData('test_2.avi')"
   ]
  },
  {
   "cell_type": "markdown",
   "id": "5e79a887",
   "metadata": {},
   "source": [
    "## step8 - build test keypoint dataframe"
   ]
  },
  {
   "cell_type": "code",
   "execution_count": 489,
   "id": "e8a33d90",
   "metadata": {},
   "outputs": [],
   "source": [
    "def loadTestData(video):\n",
    "    '''function that translates a given video's output test json files in readable pandas dataframes.\n",
    "    The columns are: frame number, x and y of each of the 24 keypoints that openpose identified'''\n",
    "\n",
    "    #initialize to empty dataframe\n",
    "    test = pd.DataFrame()\n",
    "    \n",
    "    #filename without extenction\n",
    "    vid = video[:-4]\n",
    "    \n",
    "    #path to output folder\n",
    "    path= os.path.join(dir_path, 'output_'+vid+'/')\n",
    "        \n",
    "    #frame number\n",
    "    Frames = [name for name in os.listdir(path+'json/')]\n",
    "        \n",
    "    #for each frame\n",
    "    for i,frame in enumerate(Frames):\n",
    "            \n",
    "        #path to frame json\n",
    "        file = open(path +'json/'+frame)\n",
    "\n",
    "        #load file\n",
    "        j = json.load(file)\n",
    "\n",
    "        #initialize\n",
    "        row = [[]]\n",
    "            \n",
    "        #if there is at least one person in frame\n",
    "        if (j['people'] != []):\n",
    "                \n",
    "            #in order to find main player out of all people identified we save for each element identified\n",
    "            #the size (difference between yhead-yfoot), the biggest player is the one closest to the camera\n",
    "            #and so our target\n",
    "            identify = []\n",
    "            for w in j['people']:\n",
    "                body_size= (w['pose_keypoints_2d'][1])-(w['pose_keypoints_2d'][33])\n",
    "                identify.append(body_size)\n",
    "            z = identify.index(max(identify))\n",
    "                      \n",
    "            #add keypoints found\n",
    "            row[0] += j['people'][z]['pose_keypoints_2d']\n",
    "            \n",
    "        else:\n",
    "            continue\n",
    "        \n",
    "        #initialize columns\n",
    "        columns =  ['frame_num']\n",
    "        for k in range(25):\n",
    "            X = 'X' + str(k)\n",
    "            Y = 'Y' + str(k)\n",
    "            P = 'P' + str(k)\n",
    "            columns += [X, Y, P]\n",
    "        columns += ['label']\n",
    "            \n",
    "        if (len(row[0]) == 75):\n",
    "                #complete row, set all labels to 0\n",
    "                row = [i]+ row[0] +[0]  \n",
    "                fdf = pd.DataFrame ([row], columns=columns)\n",
    "                test = pd.concat([test,fdf], ignore_index=True)\n",
    "                    \n",
    "                #start over\n",
    "                row=[[]]\n",
    "                                   \n",
    "    test = test.drop(list(test.filter(like='P', axis=1)), axis = 1)\n",
    "    return test"
   ]
  },
  {
   "cell_type": "code",
   "execution_count": 490,
   "id": "a17a7e90",
   "metadata": {},
   "outputs": [
    {
     "data": {
      "text/html": [
       "<div>\n",
       "<style scoped>\n",
       "    .dataframe tbody tr th:only-of-type {\n",
       "        vertical-align: middle;\n",
       "    }\n",
       "\n",
       "    .dataframe tbody tr th {\n",
       "        vertical-align: top;\n",
       "    }\n",
       "\n",
       "    .dataframe thead th {\n",
       "        text-align: right;\n",
       "    }\n",
       "</style>\n",
       "<table border=\"1\" class=\"dataframe\">\n",
       "  <thead>\n",
       "    <tr style=\"text-align: right;\">\n",
       "      <th></th>\n",
       "      <th>frame_num</th>\n",
       "      <th>X0</th>\n",
       "      <th>Y0</th>\n",
       "      <th>X1</th>\n",
       "      <th>Y1</th>\n",
       "      <th>X2</th>\n",
       "      <th>Y2</th>\n",
       "      <th>X3</th>\n",
       "      <th>Y3</th>\n",
       "      <th>X4</th>\n",
       "      <th>...</th>\n",
       "      <th>Y20</th>\n",
       "      <th>X21</th>\n",
       "      <th>Y21</th>\n",
       "      <th>X22</th>\n",
       "      <th>Y22</th>\n",
       "      <th>X23</th>\n",
       "      <th>Y23</th>\n",
       "      <th>X24</th>\n",
       "      <th>Y24</th>\n",
       "      <th>label</th>\n",
       "    </tr>\n",
       "  </thead>\n",
       "  <tbody>\n",
       "    <tr>\n",
       "      <th>0</th>\n",
       "      <td>0</td>\n",
       "      <td>339.954</td>\n",
       "      <td>123.780</td>\n",
       "      <td>354.589</td>\n",
       "      <td>139.412</td>\n",
       "      <td>346.800</td>\n",
       "      <td>139.428</td>\n",
       "      <td>0.000</td>\n",
       "      <td>0.000</td>\n",
       "      <td>0.000</td>\n",
       "      <td>...</td>\n",
       "      <td>319.402</td>\n",
       "      <td>389.833</td>\n",
       "      <td>314.510</td>\n",
       "      <td>363.387</td>\n",
       "      <td>298.868</td>\n",
       "      <td>364.411</td>\n",
       "      <td>295.942</td>\n",
       "      <td>381.028</td>\n",
       "      <td>292.017</td>\n",
       "      <td>0</td>\n",
       "    </tr>\n",
       "    <tr>\n",
       "      <th>1</th>\n",
       "      <td>1</td>\n",
       "      <td>0.000</td>\n",
       "      <td>0.000</td>\n",
       "      <td>356.559</td>\n",
       "      <td>141.358</td>\n",
       "      <td>364.382</td>\n",
       "      <td>142.323</td>\n",
       "      <td>367.316</td>\n",
       "      <td>170.685</td>\n",
       "      <td>349.703</td>\n",
       "      <td>...</td>\n",
       "      <td>310.568</td>\n",
       "      <td>363.405</td>\n",
       "      <td>303.754</td>\n",
       "      <td>373.192</td>\n",
       "      <td>304.702</td>\n",
       "      <td>378.071</td>\n",
       "      <td>302.762</td>\n",
       "      <td>383.971</td>\n",
       "      <td>302.754</td>\n",
       "      <td>0</td>\n",
       "    </tr>\n",
       "    <tr>\n",
       "      <th>2</th>\n",
       "      <td>2</td>\n",
       "      <td>305.708</td>\n",
       "      <td>121.821</td>\n",
       "      <td>291.005</td>\n",
       "      <td>139.415</td>\n",
       "      <td>289.071</td>\n",
       "      <td>139.402</td>\n",
       "      <td>301.775</td>\n",
       "      <td>158.971</td>\n",
       "      <td>321.344</td>\n",
       "      <td>...</td>\n",
       "      <td>0.000</td>\n",
       "      <td>298.821</td>\n",
       "      <td>268.533</td>\n",
       "      <td>285.164</td>\n",
       "      <td>270.467</td>\n",
       "      <td>279.279</td>\n",
       "      <td>271.446</td>\n",
       "      <td>276.341</td>\n",
       "      <td>264.607</td>\n",
       "      <td>0</td>\n",
       "    </tr>\n",
       "    <tr>\n",
       "      <th>3</th>\n",
       "      <td>3</td>\n",
       "      <td>0.000</td>\n",
       "      <td>0.000</td>\n",
       "      <td>350.677</td>\n",
       "      <td>132.561</td>\n",
       "      <td>367.304</td>\n",
       "      <td>133.561</td>\n",
       "      <td>363.402</td>\n",
       "      <td>157.972</td>\n",
       "      <td>0.000</td>\n",
       "      <td>...</td>\n",
       "      <td>276.353</td>\n",
       "      <td>335.054</td>\n",
       "      <td>279.300</td>\n",
       "      <td>366.322</td>\n",
       "      <td>285.162</td>\n",
       "      <td>364.366</td>\n",
       "      <td>286.120</td>\n",
       "      <td>351.661</td>\n",
       "      <td>283.222</td>\n",
       "      <td>0</td>\n",
       "    </tr>\n",
       "    <tr>\n",
       "      <th>4</th>\n",
       "      <td>4</td>\n",
       "      <td>0.000</td>\n",
       "      <td>0.000</td>\n",
       "      <td>210.819</td>\n",
       "      <td>138.412</td>\n",
       "      <td>224.488</td>\n",
       "      <td>142.318</td>\n",
       "      <td>231.369</td>\n",
       "      <td>169.733</td>\n",
       "      <td>250.928</td>\n",
       "      <td>...</td>\n",
       "      <td>291.039</td>\n",
       "      <td>178.527</td>\n",
       "      <td>293.001</td>\n",
       "      <td>217.639</td>\n",
       "      <td>302.793</td>\n",
       "      <td>212.777</td>\n",
       "      <td>303.749</td>\n",
       "      <td>199.079</td>\n",
       "      <td>296.890</td>\n",
       "      <td>0</td>\n",
       "    </tr>\n",
       "    <tr>\n",
       "      <th>...</th>\n",
       "      <td>...</td>\n",
       "      <td>...</td>\n",
       "      <td>...</td>\n",
       "      <td>...</td>\n",
       "      <td>...</td>\n",
       "      <td>...</td>\n",
       "      <td>...</td>\n",
       "      <td>...</td>\n",
       "      <td>...</td>\n",
       "      <td>...</td>\n",
       "      <td>...</td>\n",
       "      <td>...</td>\n",
       "      <td>...</td>\n",
       "      <td>...</td>\n",
       "      <td>...</td>\n",
       "      <td>...</td>\n",
       "      <td>...</td>\n",
       "      <td>...</td>\n",
       "      <td>...</td>\n",
       "      <td>...</td>\n",
       "      <td>...</td>\n",
       "    </tr>\n",
       "    <tr>\n",
       "      <th>324</th>\n",
       "      <td>324</td>\n",
       "      <td>0.000</td>\n",
       "      <td>0.000</td>\n",
       "      <td>223.516</td>\n",
       "      <td>127.685</td>\n",
       "      <td>245.031</td>\n",
       "      <td>129.633</td>\n",
       "      <td>252.850</td>\n",
       "      <td>160.892</td>\n",
       "      <td>238.223</td>\n",
       "      <td>...</td>\n",
       "      <td>296.875</td>\n",
       "      <td>182.411</td>\n",
       "      <td>293.966</td>\n",
       "      <td>236.264</td>\n",
       "      <td>292.976</td>\n",
       "      <td>243.079</td>\n",
       "      <td>293.943</td>\n",
       "      <td>242.092</td>\n",
       "      <td>294.953</td>\n",
       "      <td>0</td>\n",
       "    </tr>\n",
       "    <tr>\n",
       "      <th>325</th>\n",
       "      <td>325</td>\n",
       "      <td>0.000</td>\n",
       "      <td>0.000</td>\n",
       "      <td>159.913</td>\n",
       "      <td>133.548</td>\n",
       "      <td>178.555</td>\n",
       "      <td>134.509</td>\n",
       "      <td>185.376</td>\n",
       "      <td>156.062</td>\n",
       "      <td>0.000</td>\n",
       "      <td>...</td>\n",
       "      <td>288.114</td>\n",
       "      <td>149.165</td>\n",
       "      <td>289.070</td>\n",
       "      <td>140.376</td>\n",
       "      <td>301.784</td>\n",
       "      <td>132.577</td>\n",
       "      <td>302.770</td>\n",
       "      <td>115.932</td>\n",
       "      <td>292.981</td>\n",
       "      <td>0</td>\n",
       "    </tr>\n",
       "    <tr>\n",
       "      <th>326</th>\n",
       "      <td>326</td>\n",
       "      <td>177.555</td>\n",
       "      <td>113.941</td>\n",
       "      <td>0.000</td>\n",
       "      <td>0.000</td>\n",
       "      <td>172.643</td>\n",
       "      <td>130.621</td>\n",
       "      <td>0.000</td>\n",
       "      <td>0.000</td>\n",
       "      <td>0.000</td>\n",
       "      <td>...</td>\n",
       "      <td>0.000</td>\n",
       "      <td>0.000</td>\n",
       "      <td>0.000</td>\n",
       "      <td>0.000</td>\n",
       "      <td>0.000</td>\n",
       "      <td>0.000</td>\n",
       "      <td>0.000</td>\n",
       "      <td>0.000</td>\n",
       "      <td>0.000</td>\n",
       "      <td>0</td>\n",
       "    </tr>\n",
       "    <tr>\n",
       "      <th>327</th>\n",
       "      <td>327</td>\n",
       "      <td>0.000</td>\n",
       "      <td>0.000</td>\n",
       "      <td>354.640</td>\n",
       "      <td>134.495</td>\n",
       "      <td>371.246</td>\n",
       "      <td>135.472</td>\n",
       "      <td>369.284</td>\n",
       "      <td>157.034</td>\n",
       "      <td>0.000</td>\n",
       "      <td>...</td>\n",
       "      <td>274.405</td>\n",
       "      <td>335.062</td>\n",
       "      <td>277.354</td>\n",
       "      <td>369.276</td>\n",
       "      <td>287.118</td>\n",
       "      <td>374.182</td>\n",
       "      <td>288.071</td>\n",
       "      <td>370.284</td>\n",
       "      <td>288.100</td>\n",
       "      <td>0</td>\n",
       "    </tr>\n",
       "    <tr>\n",
       "      <th>328</th>\n",
       "      <td>328</td>\n",
       "      <td>0.000</td>\n",
       "      <td>0.000</td>\n",
       "      <td>357.569</td>\n",
       "      <td>134.534</td>\n",
       "      <td>373.197</td>\n",
       "      <td>136.460</td>\n",
       "      <td>378.062</td>\n",
       "      <td>166.769</td>\n",
       "      <td>361.447</td>\n",
       "      <td>...</td>\n",
       "      <td>273.436</td>\n",
       "      <td>331.148</td>\n",
       "      <td>280.276</td>\n",
       "      <td>365.359</td>\n",
       "      <td>289.070</td>\n",
       "      <td>369.295</td>\n",
       "      <td>289.086</td>\n",
       "      <td>372.231</td>\n",
       "      <td>293.938</td>\n",
       "      <td>0</td>\n",
       "    </tr>\n",
       "  </tbody>\n",
       "</table>\n",
       "<p>329 rows × 52 columns</p>\n",
       "</div>"
      ],
      "text/plain": [
       "     frame_num       X0       Y0       X1       Y1       X2       Y2       X3  \\\n",
       "0            0  339.954  123.780  354.589  139.412  346.800  139.428    0.000   \n",
       "1            1    0.000    0.000  356.559  141.358  364.382  142.323  367.316   \n",
       "2            2  305.708  121.821  291.005  139.415  289.071  139.402  301.775   \n",
       "3            3    0.000    0.000  350.677  132.561  367.304  133.561  363.402   \n",
       "4            4    0.000    0.000  210.819  138.412  224.488  142.318  231.369   \n",
       "..         ...      ...      ...      ...      ...      ...      ...      ...   \n",
       "324        324    0.000    0.000  223.516  127.685  245.031  129.633  252.850   \n",
       "325        325    0.000    0.000  159.913  133.548  178.555  134.509  185.376   \n",
       "326        326  177.555  113.941    0.000    0.000  172.643  130.621    0.000   \n",
       "327        327    0.000    0.000  354.640  134.495  371.246  135.472  369.284   \n",
       "328        328    0.000    0.000  357.569  134.534  373.197  136.460  378.062   \n",
       "\n",
       "          Y3       X4  ...      Y20      X21      Y21      X22      Y22  \\\n",
       "0      0.000    0.000  ...  319.402  389.833  314.510  363.387  298.868   \n",
       "1    170.685  349.703  ...  310.568  363.405  303.754  373.192  304.702   \n",
       "2    158.971  321.344  ...    0.000  298.821  268.533  285.164  270.467   \n",
       "3    157.972    0.000  ...  276.353  335.054  279.300  366.322  285.162   \n",
       "4    169.733  250.928  ...  291.039  178.527  293.001  217.639  302.793   \n",
       "..       ...      ...  ...      ...      ...      ...      ...      ...   \n",
       "324  160.892  238.223  ...  296.875  182.411  293.966  236.264  292.976   \n",
       "325  156.062    0.000  ...  288.114  149.165  289.070  140.376  301.784   \n",
       "326    0.000    0.000  ...    0.000    0.000    0.000    0.000    0.000   \n",
       "327  157.034    0.000  ...  274.405  335.062  277.354  369.276  287.118   \n",
       "328  166.769  361.447  ...  273.436  331.148  280.276  365.359  289.070   \n",
       "\n",
       "         X23      Y23      X24      Y24  label  \n",
       "0    364.411  295.942  381.028  292.017      0  \n",
       "1    378.071  302.762  383.971  302.754      0  \n",
       "2    279.279  271.446  276.341  264.607      0  \n",
       "3    364.366  286.120  351.661  283.222      0  \n",
       "4    212.777  303.749  199.079  296.890      0  \n",
       "..       ...      ...      ...      ...    ...  \n",
       "324  243.079  293.943  242.092  294.953      0  \n",
       "325  132.577  302.770  115.932  292.981      0  \n",
       "326    0.000    0.000    0.000    0.000      0  \n",
       "327  374.182  288.071  370.284  288.100      0  \n",
       "328  369.295  289.086  372.231  293.938      0  \n",
       "\n",
       "[329 rows x 52 columns]"
      ]
     },
     "execution_count": 490,
     "metadata": {},
     "output_type": "execute_result"
    }
   ],
   "source": [
    "testdf = loadTestData('test_2.avi')\n",
    "testdf"
   ]
  },
  {
   "cell_type": "markdown",
   "id": "67ec1407",
   "metadata": {},
   "source": [
    "## step 9 - prediction "
   ]
  },
  {
   "cell_type": "code",
   "execution_count": 491,
   "id": "82b1641a",
   "metadata": {},
   "outputs": [],
   "source": [
    "def test(model, testData):\n",
    "    '''this function given a dataframe and a SVM model returns the input dataframe updated to the predicted labels'''\n",
    "    X = testData.iloc[:, 1:-1]\n",
    "    ypred = model.predict(X)\n",
    "    ydf = pd.DataFrame()\n",
    "    columns=['frame_num','pred']\n",
    "    for i,j in enumerate(ypred):\n",
    "        tmp = [[]]\n",
    "        tmp[0] = df[df['label_nums']==j]['label_names'].iloc[0]\n",
    "        tmp = [i] + [tmp[0]]\n",
    "        \n",
    "        d = pd.DataFrame ([tmp], columns=columns)\n",
    "        ydf = pd.concat([ydf,d], ignore_index=True)\n",
    "\n",
    "\n",
    "    del testData['label']\n",
    "\n",
    "    testData = pd.merge(testData, ydf, on=['frame_num'],how = 'inner')\n",
    "\n",
    "\n",
    "    return testData"
   ]
  },
  {
   "cell_type": "code",
   "execution_count": 492,
   "id": "6c0f2214",
   "metadata": {},
   "outputs": [],
   "source": [
    "predicted_df = test(SVM, testdf)\n"
   ]
  },
  {
   "cell_type": "markdown",
   "id": "9e4d6da8",
   "metadata": {},
   "source": [
    "## step 10 - output prediction video"
   ]
  },
  {
   "cell_type": "code",
   "execution_count": 424,
   "id": "65d7202e",
   "metadata": {},
   "outputs": [],
   "source": [
    "def foreback_output(video_in, TestData,out_name):\n",
    "    '''this function displays on a new mp4 file the predictions taken from the dataframe we implemented in step10'''\n",
    "    out = dir_path+ 'output_'+video_in[:-4]+'/'\n",
    "    out_img = out+'images/'\n",
    "    Frames = [name for name in os.listdir(out_img)]\n",
    "    Frames.sort()\n",
    "    \n",
    "    for i,f in enumerate(Frames):\n",
    "        img = cv2.imread(out_img+f)\n",
    "        shot = TestData['pred'][i]\n",
    "        \n",
    "        if i == 0:\n",
    "            height, width, channels = img.shape\n",
    "            video_out = cv2.VideoWriter(out+out_name, cv2.VideoWriter_fourcc('m', 'p', '4', 'v'), 30, (width, height))\n",
    "\n",
    "        imgf = plot_foreback(img,width, height,shot)\n",
    "        video_out.write(imgf)\n",
    "    video_out.release()\n",
    "    \n",
    "    return\n",
    "\n",
    "def plot_foreback(img, width, height, shot_type):\n",
    "    shot = 'shot: {}'.format(shot_type)\n",
    "    \n",
    "    img = cv2.putText(img, shot, (int(width/30), int(13*height/15)), cv2.FONT_HERSHEY_DUPLEX, 1, (255, 255, 255), 1, cv2.LINE_AA)\n",
    "    return img"
   ]
  },
  {
   "cell_type": "code",
   "execution_count": 425,
   "id": "95d4b12f",
   "metadata": {},
   "outputs": [],
   "source": [
    "foreback_output('test_2.avi', predicted_df, 'predicted_test_22.mp4')"
   ]
  },
  {
   "cell_type": "markdown",
   "id": "d0e8d944",
   "metadata": {},
   "source": [
    "## step11 - evaluate your tennis wrt to your faviorite player's stroke"
   ]
  },
  {
   "cell_type": "code",
   "execution_count": 439,
   "id": "cb850fe6",
   "metadata": {},
   "outputs": [],
   "source": [
    "def loadCompData(path):\n",
    "    '''function that returns list of x and y of keypoints '''\n",
    "    Files = [name for name in os.listdir(path+'json/')]\n",
    "    Files.sort()\n",
    "    \n",
    "    df = [[] for i in range(len(Files))] \n",
    "    \n",
    "    for i,f in enumerate(Files):\n",
    "        dff=[]\n",
    "        file = open(path +'json/'+f)\n",
    "        j = json.load(file)\n",
    "        if (j['people'] != []):\n",
    "            #trick per trovare il giocatore TODO: migliora, per ora la mia idea: quello che ha piu dettagli\n",
    "            identify = []\n",
    "            for k in j['people']:\n",
    "                body_size= (k['pose_keypoints_2d'][1])-(k['pose_keypoints_2d'][33])\n",
    "                identify.append(body_size)\n",
    "            z = identify.index(max(identify))\n",
    "            q = j['people'][z]['pose_keypoints_2d']\n",
    "            \n",
    "            w=0\n",
    "            while w != 72:\n",
    "                l = q[w:w+2]\n",
    "                dff.extend(l)\n",
    "                w+=3\n",
    "            df[i]=dff\n",
    "    return df,i"
   ]
  },
  {
   "cell_type": "code",
   "execution_count": 454,
   "id": "3b1ec110",
   "metadata": {},
   "outputs": [],
   "source": [
    "#try with two videos\n",
    "d1,i = loadCompData('/Users/uni/opt/output_test_1/')\n",
    "d2,j = loadCompData('/Users/uni/opt/output_train2/')"
   ]
  },
  {
   "cell_type": "code",
   "execution_count": 455,
   "id": "7985eee6",
   "metadata": {},
   "outputs": [],
   "source": [
    "def distance(m1,m2,i,j):\n",
    "    '''distance between two videos'''\n",
    "    model_points = m1/ np.linalg.norm(m1)\n",
    "    input_points = m2/np.linalg.norm(m2)\n",
    "    x = dtw.distance(model_points, input_points)\n",
    "    return int(100-(100*(dtw.distance(model_points, input_points))))"
   ]
  },
  {
   "cell_type": "code",
   "execution_count": 458,
   "id": "e67d9bc6",
   "metadata": {},
   "outputs": [],
   "source": [
    "def compare(model1, model2,i,j):\n",
    "    '''function that compares two videos by comparing with dtw distance each keypoint of normalized to l2'''\n",
    "    scores = []\n",
    "    for k in range(24):\n",
    "        m1 = [row[k] for row in model1]\n",
    "        m2 = [row[k] for row in model2]\n",
    "        scores.append(distance(m1,m2,i,j))\n",
    "    return 'The two shots are '+ str(int(np.mean(scores)))+'% similar'"
   ]
  },
  {
   "cell_type": "code",
   "execution_count": 459,
   "id": "ef9cce4c",
   "metadata": {},
   "outputs": [
    {
     "data": {
      "text/plain": [
       "'The two shots are 71% similar'"
      ]
     },
     "execution_count": 459,
     "metadata": {},
     "output_type": "execute_result"
    }
   ],
   "source": [
    "compare(d1, d2,i,j)"
   ]
  }
 ],
 "metadata": {
  "kernelspec": {
   "display_name": "Python 3 (ipykernel)",
   "language": "python",
   "name": "python3"
  },
  "language_info": {
   "codemirror_mode": {
    "name": "ipython",
    "version": 3
   },
   "file_extension": ".py",
   "mimetype": "text/x-python",
   "name": "python",
   "nbconvert_exporter": "python",
   "pygments_lexer": "ipython3",
   "version": "3.10.5"
  }
 },
 "nbformat": 4,
 "nbformat_minor": 5
}
